<svg width="20" height="22" viewBox="0 0 20 22" fill="none" xmlns="http://www.w3.org/2000/svg">
<path d="M4.61571 2.06661L4.61571 10.0664L0.76979 10.0664C0.617572 10.0662 0.46874 10.1131 0.342137 10.201C0.215534 10.2889 0.116853 10.4139 0.058585 10.5601C0.00031741 10.7064 -0.014916 10.8673 0.0148133 11.0226C0.0445425 11.1779 0.117898 11.3204 0.225592 11.4323L9.4558 21.032C9.52724 21.1064 9.61207 21.1654 9.70545 21.2057C9.79882 21.2459 9.89892 21.2667 10 21.2667C10.1011 21.2667 10.2012 21.2459 10.2945 21.2057C10.3879 21.1654 10.4728 21.1064 10.5442 21.032L19.7744 11.4323C19.8821 11.3204 19.9555 11.1779 19.9852 11.0226C20.0149 10.8673 19.9997 10.7064 19.9414 10.5601C19.8831 10.4139 19.7845 10.2889 19.6579 10.201C19.5313 10.1131 19.3824 10.0662 19.2302 10.0664L15.3843 10.0664L15.3843 2.06661C15.3843 1.64228 15.2222 1.23533 14.9337 0.935276C14.6452 0.635227 14.2539 0.466662 13.8459 0.466662L6.15408 0.466662C5.74608 0.466662 5.35479 0.635227 5.06629 0.935276C4.77779 1.23532 4.61571 1.64228 4.61571 2.06661ZM13.8459 2.06661L13.8459 10.8663C13.8459 11.0785 13.927 11.282 14.0712 11.432C14.2155 11.582 14.4111 11.6663 14.6151 11.6663L17.3736 11.6663L10 19.3351L2.62641 11.6663L5.38489 11.6663C5.58889 11.6663 5.78454 11.582 5.92879 11.432C6.07304 11.282 6.15408 11.0785 6.15408 10.8663L6.15408 2.06661L13.8459 2.06661Z" fill="#888A8C"/>
</svg>
