<svg width="20" height="16" viewBox="0 0 20 16" fill="none" xmlns="http://www.w3.org/2000/svg">
<path d="M19.3975 5.3525L14.8975 0.852499C14.7909 0.753139 14.6498 0.699048 14.5041 0.701619C14.3584 0.70419 14.2193 0.763225 14.1163 0.866283C14.0132 0.969343 13.9542 1.10838 13.9516 1.25411C13.949 1.39983 14.0031 1.54087 14.1025 1.6475L17.6416 5.1875H10C7.46478 5.19048 5.03425 6.19891 3.24158 7.99158C1.44891 9.78425 0.440477 12.2148 0.4375 14.75C0.4375 14.8992 0.496763 15.0423 0.602252 15.1477C0.707742 15.2532 0.850816 15.3125 1 15.3125C1.14918 15.3125 1.29226 15.2532 1.39775 15.1477C1.50324 15.0423 1.5625 14.8992 1.5625 14.75C1.56498 12.513 2.45473 10.3683 4.03653 8.78653C5.61833 7.20473 7.763 6.31498 10 6.3125H17.6416L14.1025 9.8525C14.0031 9.95913 13.949 10.1002 13.9516 10.2459C13.9542 10.3916 14.0132 10.5307 14.1163 10.6337C14.2193 10.7368 14.3584 10.7958 14.5041 10.7984C14.6498 10.801 14.7909 10.7469 14.8975 10.6475L19.3975 6.1475C19.5028 6.04203 19.562 5.89906 19.562 5.75C19.562 5.60094 19.5028 5.45797 19.3975 5.3525Z" fill="#888A8C"/>
</svg>
