<svg width="20" height="22" viewBox="0 0 20 22" fill="none" xmlns="http://www.w3.org/2000/svg">
<path d="M15.3843 19.9334L15.3843 11.9337L19.2302 11.9337C19.3824 11.9338 19.5313 11.887 19.6579 11.7991C19.7845 11.7112 19.8831 11.5862 19.9414 11.4399C19.9997 11.2937 20.0149 11.1327 19.9852 10.9775C19.9555 10.8222 19.8821 10.6796 19.7744 10.5677L10.5442 0.96802C10.4728 0.893641 10.3879 0.834636 10.2946 0.794378C10.2012 0.754119 10.1011 0.733398 10 0.733398C9.89892 0.733398 9.79883 0.754119 9.70545 0.794378C9.61207 0.834636 9.52724 0.893641 9.4558 0.96802L0.225595 10.5677C0.1179 10.6796 0.0445457 10.8222 0.0148177 10.9775C-0.0149121 11.1327 0.00032188 11.2937 0.0585895 11.4399C0.116857 11.5862 0.215538 11.7112 0.342142 11.7991C0.468744 11.887 0.617576 11.9338 0.769794 11.9337L4.61571 11.9337L4.61571 19.9334C4.61571 20.3578 4.77779 20.7647 5.06629 21.0648C5.35479 21.3648 5.74608 21.5334 6.15408 21.5334L13.8459 21.5334C14.2539 21.5334 14.6452 21.3648 14.9337 21.0648C15.2222 20.7647 15.3843 20.3578 15.3843 19.9334ZM6.15408 19.9334L6.15408 11.1337C6.15408 10.9215 6.07304 10.7181 5.92879 10.568C5.78454 10.418 5.5889 10.3337 5.3849 10.3337L2.62641 10.3337L10 2.66497L17.3736 10.3337L14.6151 10.3337C14.4111 10.3337 14.2155 10.418 14.0712 10.568C13.927 10.7181 13.8459 10.9215 13.8459 11.1337L13.8459 19.9334L6.15408 19.9334Z" fill="#888A8C"/>
</svg>
